<svg version="1.0" xmlns="http://www.w3.org/2000/svg" xmlns:xlink="http://www.w3.org/1999/xlink" x="0" y="0" width="2400" height="1956.2250729819498" viewBox="78.51620513916015 50.43211395263672 182.96760498046876 149.1357568359375" preserveAspectRatio="xMidYMid meet" color-interpolation-filters="sRGB"><g><defs><linearGradient id="92" x1="0%" y1="0%" x2="100%" y2="0%"><stop offset="0%" stop-color="#fa71cd"></stop> <stop offset="100%" stop-color="#9b59b6"></stop></linearGradient><linearGradient id="93" x1="0%" y1="0%" x2="100%" y2="0%"><stop offset="0%" stop-color="#f9d423"></stop> <stop offset="100%" stop-color="#f83600"></stop></linearGradient><linearGradient id="94" x1="0%" y1="0%" x2="100%" y2="0%"><stop offset="0%" stop-color="#0064d2"></stop> <stop offset="100%" stop-color="#1cb0f6"></stop></linearGradient><linearGradient id="95" x1="0%" y1="0%" x2="100%" y2="0%"><stop offset="0%" stop-color="#f00978"></stop> <stop offset="100%" stop-color="#3f51b1"></stop></linearGradient><linearGradient id="96" x1="0%" y1="0%" x2="100%" y2="0%"><stop offset="0%" stop-color="#7873f5"></stop> <stop offset="100%" stop-color="#ec77ab"></stop></linearGradient><linearGradient id="97" x1="0%" y1="0%" x2="100%" y2="0%"><stop offset="0%" stop-color="#f9d423"></stop> <stop offset="100%" stop-color="#e14fad"></stop></linearGradient><linearGradient id="98" x1="0%" y1="0%" x2="100%" y2="0%"><stop offset="0%" stop-color="#009efd"></stop> <stop offset="100%" stop-color="#2af598"></stop></linearGradient><linearGradient id="99" x1="0%" y1="0%" x2="100%" y2="0%"><stop offset="0%" stop-color="#ffcc00"></stop> <stop offset="100%" stop-color="#00b140"></stop></linearGradient><linearGradient id="100" x1="0%" y1="0%" x2="100%" y2="0%"><stop offset="0%" stop-color="#d51007"></stop> <stop offset="100%" stop-color="#ff8177"></stop></linearGradient><linearGradient id="102" x1="0%" y1="0%" x2="100%" y2="0%"><stop offset="0%" stop-color="#a2b6df"></stop> <stop offset="100%" stop-color="#0c3483"></stop></linearGradient><linearGradient id="103" x1="0%" y1="0%" x2="100%" y2="0%"><stop offset="0%" stop-color="#7ac5d8"></stop> <stop offset="100%" stop-color="#eea2a2"></stop></linearGradient><linearGradient id="104" x1="0%" y1="0%" x2="100%" y2="0%"><stop offset="0%" stop-color="#00ecbc"></stop> <stop offset="100%" stop-color="#007adf"></stop></linearGradient><linearGradient id="105" x1="0%" y1="0%" x2="100%" y2="0%"><stop offset="0%" stop-color="#b88746"></stop> <stop offset="100%" stop-color="#fdf5a6"></stop></linearGradient></defs><g class="iconmbgsvg" transform="translate(80.31000515818596,52.225914001464844)"><g fill="#000000" hollow-target="textNormalTran"><g opacity="0.55" transform="translate(33.43999099731445,0)"><g><rect fill="#000000" fill-opacity="0" stroke-width="2" x="0" y="0" width="112.5" height="145.54816673997982" class="image-rect"></rect> <svg x="0" y="0" width="112.5" height="145.54816673997982" filtersec="colorsb8259563878" class="image-svg-svg primary" style="overflow: visible;"><svg xmlns="http://www.w3.org/2000/svg" viewBox="0.0035181045532226562 0 92.28955841064453 119.39999389648438"><g fill-rule="evenodd"><path d="M49.56 0c-33.34 14.8-36.93 73.47-24.3 102.81C34.54 66.19 65.53 38.41 49.56 0z" fill="#0593F9"></path><path d="M11.7 1.1c-20.46 9.53-10.27 40 1.75 62.16C13.84 41 21.29 24.27 11.7 1.1z" fill="#04F204"></path><path d="M90.54 36.06c-33 3.93-60.49 50-62.85 83.34C55.81 93.8 101.85 81 90.54 36.06z" fill="#f10058"></path></g></svg></svg> </g></g> <g transform="translate(0,52.32108688354492)"><g fill-rule="" class="tp-name" transform="translate(0,0)"><g transform="scale(1)"><g><path d="M8.94-12.83L9.56-13.91 18.09-13.91 18.38-12.83 8.94-12.83ZM29.43-0.5Q29.6-0.5 29.6-0.25 29.6 0 29.43 0L29.43 0Q28.65 0 26.91-0.08L26.91-0.08Q25.17-0.17 24.38-0.17L24.38-0.17Q23.35-0.17 21.94-0.08L21.94-0.08Q20.53 0 19.75 0L19.75 0Q19.58 0 19.58-0.25 19.58-0.5 19.75-0.5L19.75-0.5Q20.99-0.5 21.53-0.77 22.07-1.03 22.07-1.66L22.07-1.66Q22.07-2.28 21.36-3.77L21.36-3.77 12.71-21.36 14.41-24.14 6.21-5.67Q5.67-4.43 5.67-3.44L5.67-3.44Q5.67-1.99 6.71-1.24 7.74-0.5 9.6-0.5L9.6-0.5Q9.81-0.5 9.81-0.25 9.81 0 9.6 0L9.6 0Q8.86 0 7.45-0.08L7.45-0.08Q5.88-0.17 4.72-0.17L4.72-0.17Q3.6-0.17 2.11-0.08L2.11-0.08Q0.79 0-0.08 0L-0.08 0Q-0.29 0-0.29-0.25-0.29-0.5-0.08-0.5L-0.08-0.5Q1.08-0.5 1.86-0.95 2.65-1.41 3.39-2.59 4.14-3.77 5.17-6.09L5.17-6.09 14.08-26.12Q14.16-26.25 14.45-26.25L14.45-26.25Q14.74-26.25 14.78-26.12L14.78-26.12 24.92-5.67Q26.33-2.69 27.3-1.59 28.28-0.5 29.43-0.5L29.43-0.5ZM41.73-10.76Q45.33-10.72 47.24-9.48 49.14-8.24 49.14-5.88L49.14-5.88Q49.14-4.1 48.1-2.73 47.07-1.37 45.27-0.6 43.47 0.17 41.15 0.17L41.15 0.17Q40.03 0.17 38.54 0.04L38.54 0.04Q37.96 0 37.13-0.04 36.31-0.08 35.31-0.08L35.31-0.08 32.79-0.04Q32.04 0 30.76 0L30.76 0Q30.68 0 30.68-0.25 30.68-0.5 30.76-0.5L30.76-0.5Q32.04-0.5 32.62-0.7 33.2-0.91 33.41-1.51 33.62-2.11 33.62-3.35L33.62-3.35 33.62-16.02Q33.62-17.26 33.41-17.84 33.2-18.42 32.62-18.65 32.04-18.88 30.8-18.88L30.8-18.88Q30.72-18.88 30.72-19.13 30.72-19.37 30.8-19.37L30.8-19.37 32.79-19.33Q34.44-19.25 35.31-19.25L35.31-19.25Q36.51-19.25 37.8-19.37L37.8-19.37Q38.25-19.42 39.1-19.46 39.95-19.5 40.61-19.5L40.61-19.5Q43.63-19.5 45.33-18.44 47.03-17.39 47.03-15.44L47.03-15.44Q47.03-13.58 45.46-12.23 43.88-10.89 41.03-10.31L41.03-10.31 41.73-10.76ZM39.58-18.96Q38.58-18.96 38.09-18.73 37.59-18.51 37.38-17.86 37.18-17.22 37.18-15.94L37.18-15.94 37.18-10.6 35.69-10.85Q36.97-10.72 39.08-10.72L39.08-10.72Q40.65-10.72 41.56-11.01 42.47-11.3 42.95-12.11 43.43-12.92 43.43-14.49L43.43-14.49Q43.43-18.96 39.58-18.96L39.58-18.96ZM40.4-0.5Q45.33-0.5 45.33-4.89L45.33-4.89Q45.33-9.98 38.79-9.98L38.79-9.98Q36.93-9.98 35.69-9.73L35.69-9.73 37.18-10.23 37.18-3.35Q37.18-1.78 37.82-1.14 38.46-0.5 40.4-0.5L40.4-0.5ZM62.26 0.17Q61.1 0.17 59.66 0.04L59.66 0.04Q59.16 0 58.41-0.04 57.67-0.08 56.72-0.08L56.72-0.08 54.15-0.04Q53.4 0 52.12 0L52.12 0Q52.04 0 52.04-0.25 52.04-0.5 52.12-0.5L52.12-0.5Q53.4-0.5 53.98-0.7 54.56-0.91 54.77-1.51 54.98-2.11 54.98-3.35L54.98-3.35 54.98-16.02Q54.98-17.26 54.77-17.84 54.56-18.42 53.98-18.65 53.4-18.88 52.16-18.88L52.16-18.88Q52.08-18.88 52.08-19.13 52.08-19.37 52.16-19.37L52.16-19.37 54.15-19.33Q55.8-19.25 56.72-19.25L56.72-19.25Q58-19.25 59.28-19.37L59.28-19.37Q60.94-19.46 61.77-19.46L61.77-19.46Q65.24-19.46 67.77-18.22 70.29-16.97 71.62-14.78 72.94-12.59 72.94-9.81L72.94-9.81Q72.94-6.95 71.58-4.68 70.21-2.4 67.79-1.12 65.37 0.17 62.26 0.17L62.26 0.17ZM61.77-0.62Q65.08-0.62 66.94-2.88 68.8-5.13 68.8-9.36L68.8-9.36Q68.8-13.41 66.96-16.06 65.12-18.71 61.44-18.71L61.44-18.71Q59.82-18.71 59.18-18.11 58.54-17.51 58.54-15.94L58.54-15.94 58.54-3.81Q58.54-2.07 59.18-1.35 59.82-0.62 61.77-0.62L61.77-0.62ZM91.86-15.94Q91.86-17.18 91.7-17.78 91.53-18.38 91.03-18.63 90.54-18.88 89.5-18.88L89.5-18.88Q89.38-18.88 89.38-19.13 89.38-19.37 89.5-19.37L89.5-19.37 91.37-19.33Q92.94-19.25 93.81-19.25L93.81-19.25Q94.68-19.25 96.09-19.33L96.09-19.33 97.95-19.37Q98.07-19.37 98.07-19.13 98.07-18.88 97.95-18.88L97.95-18.88Q96.87-18.88 96.35-18.65 95.84-18.42 95.65-17.84 95.46-17.26 95.46-16.02L95.46-16.02 95.46-3.35Q95.46-2.11 95.65-1.51 95.84-0.91 96.33-0.7 96.83-0.5 97.87-0.5L97.87-0.5Q97.99-0.5 97.99-0.25 97.99 0 97.87 0L97.87 0 95.17-0.04 92.65 0Q92.15 0 92.01-0.12 91.86-0.25 91.86-0.79L91.86-0.79 91.86-15.94ZM93.39-5.05Q91.37-2.15 89.15-0.83 86.94 0.5 84.33 0.5L84.33 0.5Q81.43 0.5 79.51-1.03 77.58-2.57 77.58-5.63L77.58-5.63 77.58-16.02Q77.58-17.26 77.44-17.84 77.29-18.42 76.9-18.65 76.5-18.88 75.63-18.88L75.63-18.88Q75.55-18.88 75.55-19.13 75.55-19.37 75.63-19.37L75.63-19.37 77.25-19.33Q78.66-19.25 79.4-19.25L79.4-19.25Q80.35-19.25 81.93-19.33L81.93-19.33 83.62-19.37Q83.71-19.37 83.71-19.13 83.71-18.88 83.62-18.88L83.62-18.88Q82.55-18.88 82.01-18.63 81.47-18.38 81.29-17.78 81.1-17.18 81.1-15.94L81.1-15.94 81.1-6.75Q81.1-3.56 82.38-2.17 83.67-0.79 85.82-0.79L85.82-0.79Q87.72-0.79 89.44-1.9 91.16-3.02 92.82-5.59L92.82-5.59 93.39-5.05ZM112.11-19.87Q113.64-19.87 115.44-19.54 117.24-19.21 118.4-18.67L118.4-18.67Q118.69-18.55 118.77-18.4 118.85-18.26 118.85-17.97L118.85-17.97 119.14-13.7Q119.14-13.58 118.92-13.54 118.69-13.5 118.65-13.66L118.65-13.66Q117.36-16.39 115.63-17.72 113.89-19.04 111.49-19.04L111.49-19.04Q108.42-19.04 106.66-16.64 104.9-14.24 104.9-10.39L104.9-10.39Q104.9-7.82 105.71-5.51 106.52-3.19 108.24-1.74 109.95-0.29 112.48-0.29L112.48-0.29Q114.76-0.29 116.31-1.61 117.86-2.94 119.06-5.8L119.06-5.8Q119.1-5.96 119.31-5.92 119.52-5.88 119.52-5.75L119.52-5.75 119.1-1.37Q119.06-1.03 118.98-0.91 118.9-0.79 118.52-0.62L118.52-0.62Q115.34 0.5 111.9 0.5L111.9 0.5Q107.97 0.5 105.44-1.08 102.92-2.65 101.78-5.01 100.64-7.37 100.64-9.77L100.64-9.77Q100.64-12.59 102.15-14.9 103.66-17.22 106.29-18.55 108.92-19.87 112.11-19.87L112.11-19.87ZM132.06 0.5Q128.96 0.5 126.74-0.89 124.53-2.28 123.41-4.51 122.29-6.75 122.29-9.36L122.29-9.36Q122.29-12.21 123.68-14.59 125.06-16.97 127.42-18.38 129.78-19.79 132.56-19.79L132.56-19.79Q135.54-19.79 137.07-18.19 138.6-16.6 138.6-13.99L138.6-13.99Q138.6-13.54 138.5-13.33 138.39-13.12 138.1-13.12L138.1-13.12 134.67-13.12Q134.71-13.45 134.71-14.08L134.71-14.08Q134.71-16.39 133.82-17.61 132.93-18.84 131.19-18.84L131.19-18.84Q128.87-18.84 127.49-16.7 126.1-14.57 126.1-11.01L126.1-11.01Q126.1-6.5 128.17-3.75 130.24-0.99 133.92-0.99L133.92-0.99Q135-0.99 136.14-1.3 137.28-1.61 138.19-2.24L138.19-2.24 138.23-2.24Q138.35-2.24 138.46-2.09 138.56-1.95 138.48-1.82L138.48-1.82Q135.54 0.5 132.06 0.5L132.06 0.5ZM124.44-13.08L124.4-13.79 136.24-13.99 136.24-13.12 124.44-13.08ZM150.07-0.5Q150.15-0.5 150.15-0.25 150.15 0 150.07 0L150.07 0Q148.87 0 148.16-0.04L148.16-0.04 145.43-0.08 142.87-0.04Q142.12 0 140.84 0L140.84 0Q140.75 0 140.75-0.25 140.75-0.5 140.84-0.5L140.84-0.5Q142.08-0.5 142.66-0.7 143.24-0.91 143.45-1.51 143.65-2.11 143.65-3.35L143.65-3.35 143.65-16.02Q143.65-17.26 143.45-17.84 143.24-18.42 142.66-18.65 142.08-18.88 140.88-18.88L140.88-18.88Q140.8-18.88 140.8-19.13 140.8-19.37 140.88-19.37L140.88-19.37 142.91-19.33Q144.48-19.25 145.43-19.25L145.43-19.25Q146.22-19.25 146.88-19.29 147.54-19.33 148.04-19.37L148.04-19.37Q149.41-19.5 150.52-19.5L150.52-19.5Q153.59-19.5 155.18-18.46 156.78-17.43 156.78-15.48L156.78-15.48Q156.78-13.79 155.66-12.34 154.54-10.89 152.59-10.04 150.65-9.19 148.33-9.19L148.33-9.19Q147.01-9.19 146.05-9.36L146.05-9.36 146.01-10.23Q147.05-9.94 148.62-9.94L148.62-9.94Q151.06-9.94 152.01-11.05 152.97-12.17 152.97-14.37L152.97-14.37Q152.97-18.75 149.53-18.75L149.53-18.75Q148.16-18.75 147.75-18.19 147.34-17.64 147.34-15.94L147.34-15.94 147.34-3.35Q147.34-2.07 147.52-1.49 147.71-0.91 148.27-0.7 148.83-0.5 150.07-0.5L150.07-0.5ZM162.61-0.5Q162.74-0.5 162.74-0.25 162.74 0 162.61 0L162.61 0 156.49 0Q155.82 0 154.06-2.59 152.3-5.17 149.94-9.6L149.94-9.6 152.84-10.47Q155.16-6.58 156.8-4.45 158.43-2.32 159.78-1.41 161.12-0.5 162.61-0.5L162.61-0.5ZM172.55 0.5Q169.44 0.5 167.23-0.89 165.01-2.28 163.9-4.51 162.78-6.75 162.78-9.36L162.78-9.36Q162.78-12.21 164.17-14.59 165.55-16.97 167.91-18.38 170.27-19.79 173.05-19.79L173.05-19.79Q176.03-19.79 177.56-18.19 179.09-16.6 179.09-13.99L179.09-13.99Q179.09-13.54 178.99-13.33 178.88-13.12 178.59-13.12L178.59-13.12 175.16-13.12Q175.2-13.45 175.2-14.08L175.2-14.08Q175.2-16.39 174.31-17.61 173.42-18.84 171.68-18.84L171.68-18.84Q169.36-18.84 167.97-16.7 166.59-14.57 166.59-11.01L166.59-11.01Q166.59-6.5 168.66-3.75 170.73-0.99 174.41-0.99L174.41-0.99Q175.49-0.99 176.63-1.3 177.76-1.61 178.68-2.24L178.68-2.24 178.72-2.24Q178.84-2.24 178.94-2.09 179.05-1.95 178.97-1.82L178.97-1.82Q176.03 0.5 172.55 0.5L172.55 0.5ZM164.93-13.08L164.89-13.79 176.73-13.99 176.73-13.12 164.93-13.08Z" transform="translate(0.2900000214576721, 26.25)"></path></g> </g></g> <g fill-rule="" class="tp-slogan" fill="#000000" transform="translate(6.714996337890625,32.75)"> <g transform="scale(1, 1)"><g transform="scale(1)"><path d="M1.08 0L1.08-7.87L3.49-7.87Q4.14-7.87 4.68-7.75Q5.22-7.63 5.60-7.36Q5.98-7.09 6.19-6.65Q6.40-6.20 6.40-5.56L6.40-5.56Q6.40-4.93 6.19-4.48Q5.98-4.02 5.59-3.72Q5.21-3.42 4.67-3.27Q4.14-3.12 3.49-3.12L3.49-3.12L2.08-3.12L2.08 0L1.08 0ZM2.08-3.94L3.37-3.94Q4.40-3.94 4.90-4.33Q5.40-4.72 5.40-5.56L5.40-5.56Q5.40-6.41 4.90-6.74Q4.39-7.07 3.37-7.07L3.37-7.07L2.08-7.07L2.08-3.94ZM8.99-7.07L8.99-4.14L10.31-4.14Q11.23-4.14 11.72-4.52Q12.22-4.90 12.22-5.66L12.22-5.66Q12.22-6.44 11.72-6.76Q11.23-7.07 10.31-7.07L10.31-7.07L8.99-7.07ZM13.44 0L12.31 0L10.42-3.32L8.99-3.32L8.99 0L7.99 0L7.99-7.87L10.45-7.87Q11.05-7.87 11.56-7.76Q12.07-7.64 12.44-7.38Q12.80-7.12 13.01-6.70Q13.21-6.28 13.21-5.66L13.21-5.66Q13.21-4.74 12.73-4.19Q12.25-3.64 11.45-3.43L11.45-3.43L13.44 0ZM14.96 0L14.96-7.87L15.96-7.87L15.96 0L14.96 0ZM19.56 0L17.04-7.87L18.11-7.87L19.37-3.62Q19.58-2.92 19.75-2.32Q19.91-1.72 20.14-1.02L20.14-1.02L20.18-1.02Q20.40-1.72 20.57-2.32Q20.74-2.92 20.94-3.62L20.94-3.62L22.20-7.87L23.22-7.87L20.72 0L19.56 0ZM25.12-3.20L27.48-3.20L27.11-4.40Q26.89-5.06 26.70-5.72Q26.51-6.37 26.32-7.06L26.32-7.06L26.27-7.06Q26.09-6.37 25.90-5.72Q25.70-5.06 25.49-4.40L25.49-4.40L25.12-3.20ZM28.48 0L27.73-2.40L24.86-2.40L24.11 0L23.09 0L25.75-7.87L26.88-7.87L29.54 0L28.48 0ZM30.08-3.94L30.08-3.94Q30.08-4.88 30.35-5.64Q30.61-6.40 31.08-6.92Q31.55-7.45 32.19-7.73Q32.83-8.02 33.59-8.02L33.59-8.02Q34.31-8.02 34.85-7.72Q35.39-7.43 35.74-7.04L35.74-7.04L35.17-6.41Q34.86-6.74 34.48-6.94Q34.10-7.14 33.60-7.14L33.60-7.14Q33.04-7.14 32.58-6.92Q32.12-6.70 31.80-6.28Q31.48-5.87 31.30-5.28Q31.12-4.69 31.12-3.96L31.12-3.96Q31.12-3.22 31.29-2.62Q31.46-2.03 31.78-1.61Q32.09-1.19 32.54-0.96Q32.99-0.73 33.55-0.73L33.55-0.73Q34.13-0.73 34.55-0.96Q34.98-1.19 35.36-1.61L35.36-1.61L35.93-1.00Q35.46-0.46 34.87-0.16Q34.28 0.14 33.53 0.14L33.53 0.14Q32.78 0.14 32.15-0.13Q31.52-0.41 31.06-0.93Q30.60-1.45 30.34-2.21Q30.08-2.98 30.08-3.94ZM38.58 0L38.58-3.05L36.22-7.87L37.28-7.87L38.30-5.65Q38.50-5.22 38.68-4.80Q38.86-4.38 39.06-3.94L39.06-3.94L39.11-3.94Q39.31-4.38 39.52-4.80Q39.72-5.22 39.90-5.65L39.90-5.65L40.91-7.87L41.95-7.87L39.59-3.05L39.59 0L38.58 0ZM45.44 0L45.44-7.87L49.98-7.87L49.98-7.03L46.44-7.03L46.44-4.56L49.43-4.56L49.43-3.71L46.44-3.71L46.44-0.85L50.10-0.85L50.10 0L45.44 0ZM51.77 0L51.77-7.87L52.80-7.87L55.64-2.93L56.50-1.30L56.54-1.30Q56.51-1.90 56.47-2.54Q56.42-3.18 56.42-3.80L56.42-3.80L56.42-7.87L57.37-7.87L57.37 0L56.34 0L53.48-4.96L52.63-6.58L52.58-6.58Q52.63-5.98 52.67-5.36Q52.72-4.74 52.72-4.12L52.72-4.12L52.72 0L51.77 0ZM59.53 0L59.53-7.87L60.53-7.87L60.53-4.57L64.19-4.57L64.19-7.87L65.20-7.87L65.20 0L64.19 0L64.19-3.71L60.53-3.71L60.53 0L59.53 0ZM68.34-3.20L70.70-3.20L70.33-4.40Q70.12-5.06 69.92-5.72Q69.73-6.37 69.54-7.06L69.54-7.06L69.49-7.06Q69.31-6.37 69.12-5.72Q68.93-5.06 68.71-4.40L68.71-4.40L68.34-3.20ZM71.70 0L70.96-2.40L68.09-2.40L67.33 0L66.31 0L68.98-7.87L70.10-7.87L72.77 0L71.70 0ZM73.88 0L73.88-7.87L74.92-7.87L77.76-2.93L78.61-1.30L78.66-1.30Q78.62-1.90 78.58-2.54Q78.54-3.18 78.54-3.80L78.54-3.80L78.54-7.87L79.49-7.87L79.49 0L78.46 0L75.60-4.96L74.75-6.58L74.70-6.58Q74.75-5.98 74.79-5.36Q74.83-4.74 74.83-4.12L74.83-4.12L74.83 0L73.88 0ZM81.19-3.94L81.19-3.94Q81.19-4.88 81.46-5.64Q81.72-6.40 82.19-6.92Q82.66-7.45 83.30-7.73Q83.94-8.02 84.70-8.02L84.70-8.02Q85.42-8.02 85.96-7.72Q86.50-7.43 86.84-7.04L86.84-7.04L86.28-6.41Q85.97-6.74 85.59-6.94Q85.21-7.14 84.71-7.14L84.71-7.14Q84.14-7.14 83.69-6.92Q83.23-6.70 82.91-6.28Q82.58-5.87 82.40-5.28Q82.22-4.69 82.22-3.96L82.22-3.96Q82.22-3.22 82.40-2.62Q82.57-2.03 82.88-1.61Q83.20-1.19 83.65-0.96Q84.10-0.73 84.66-0.73L84.66-0.73Q85.24-0.73 85.66-0.96Q86.09-1.19 86.47-1.61L86.47-1.61L87.04-1.00Q86.57-0.46 85.98-0.16Q85.39 0.14 84.64 0.14L84.64 0.14Q83.89 0.14 83.26-0.13Q82.63-0.41 82.17-0.93Q81.71-1.45 81.45-2.21Q81.19-2.98 81.19-3.94ZM88.50 0L88.50-7.87L89.50-7.87L89.50 0L88.50 0ZM91.66 0L91.66-7.87L92.69-7.87L95.53-2.93L96.38-1.30L96.43-1.30Q96.40-1.90 96.35-2.54Q96.31-3.18 96.31-3.80L96.31-3.80L96.31-7.87L97.26-7.87L97.26 0L96.23 0L93.37-4.96L92.52-6.58L92.47-6.58Q92.52-5.98 92.56-5.36Q92.60-4.74 92.60-4.12L92.60-4.12L92.60 0L91.66 0ZM98.96-3.94L98.96-3.94Q98.96-4.88 99.23-5.64Q99.50-6.40 99.99-6.92Q100.48-7.45 101.14-7.73Q101.80-8.02 102.59-8.02L102.59-8.02Q103.40-8.02 103.95-7.71Q104.50-7.40 104.84-7.04L104.84-7.04L104.28-6.41Q103.98-6.72 103.59-6.93Q103.20-7.14 102.60-7.14L102.60-7.14Q102-7.14 101.52-6.92Q101.04-6.70 100.70-6.28Q100.37-5.87 100.18-5.28Q100.00-4.69 100.00-3.96L100.00-3.96Q100.00-3.22 100.17-2.62Q100.34-2.03 100.67-1.61Q101.00-1.19 101.49-0.96Q101.98-0.73 102.61-0.73L102.61-0.73Q103.03-0.73 103.41-0.86Q103.79-0.98 104.03-1.20L104.03-1.20L104.03-3.25L102.36-3.25L102.36-4.08L104.94-4.08L104.94-0.77Q104.56-0.37 103.93-0.11Q103.30 0.14 102.50 0.14L102.50 0.14Q101.72 0.14 101.08-0.13Q100.43-0.41 99.96-0.93Q99.49-1.45 99.23-2.21Q98.96-2.98 98.96-3.94ZM108.67-1.02L109.27-1.72Q109.69-1.27 110.26-1.00Q110.83-0.73 111.44-0.73L111.44-0.73Q112.22-0.73 112.66-1.09Q113.09-1.44 113.09-2.02L113.09-2.02Q113.09-2.32 112.99-2.53Q112.88-2.74 112.71-2.89Q112.54-3.04 112.30-3.16Q112.06-3.28 111.78-3.41L111.78-3.41L110.65-3.90Q110.38-4.02 110.09-4.19Q109.80-4.36 109.57-4.60Q109.34-4.84 109.20-5.17Q109.06-5.50 109.06-5.93L109.06-5.93Q109.06-6.37 109.24-6.76Q109.43-7.14 109.76-7.42Q110.09-7.70 110.54-7.86Q110.99-8.02 111.53-8.02L111.53-8.02Q112.24-8.02 112.84-7.75Q113.44-7.48 113.86-7.04L113.86-7.04L113.32-6.40Q112.96-6.74 112.52-6.94Q112.08-7.14 111.53-7.14L111.53-7.14Q110.87-7.14 110.47-6.83Q110.06-6.53 110.06-5.99L110.06-5.99Q110.06-5.70 110.18-5.50Q110.29-5.30 110.48-5.15Q110.68-5.00 110.90-4.89Q111.13-4.78 111.37-4.68L111.37-4.68L112.49-4.20Q112.82-4.06 113.12-3.87Q113.42-3.68 113.64-3.44Q113.86-3.19 113.98-2.86Q114.11-2.53 114.11-2.10L114.11-2.10Q114.11-1.63 113.92-1.22Q113.74-0.82 113.39-0.51Q113.04-0.20 112.55-0.03Q112.06 0.14 111.43 0.14L111.43 0.14Q110.60 0.14 109.90-0.17Q109.19-0.48 108.67-1.02L108.67-1.02ZM118.56 0.14L118.56 0.14Q117.82 0.14 117.20-0.14Q116.58-0.43 116.14-0.97Q115.69-1.50 115.45-2.26Q115.20-3.02 115.20-3.97L115.20-3.97Q115.20-4.92 115.45-5.67Q115.69-6.42 116.14-6.94Q116.58-7.46 117.20-7.74Q117.82-8.02 118.56-8.02L118.56-8.02Q119.30-8.02 119.92-7.73Q120.54-7.45 120.99-6.93Q121.44-6.41 121.69-5.66Q121.93-4.91 121.93-3.97L121.93-3.97Q121.93-3.02 121.69-2.26Q121.44-1.50 120.99-0.97Q120.54-0.43 119.92-0.14Q119.30 0.14 118.56 0.14ZM118.56-0.73L118.56-0.73Q119.09-0.73 119.51-0.96Q119.94-1.19 120.25-1.61Q120.55-2.04 120.72-2.63Q120.89-3.23 120.89-3.97L120.89-3.97Q120.89-4.70 120.72-5.29Q120.55-5.88 120.25-6.29Q119.94-6.70 119.51-6.92Q119.09-7.14 118.56-7.14L118.56-7.14Q118.03-7.14 117.61-6.92Q117.18-6.70 116.87-6.29Q116.57-5.88 116.40-5.29Q116.23-4.70 116.23-3.97L116.23-3.97Q116.23-3.23 116.40-2.63Q116.57-2.04 116.87-1.61Q117.18-1.19 117.61-0.96Q118.03-0.73 118.56-0.73ZM123.62 0L123.62-7.87L124.62-7.87L124.62-0.85L128.06-0.85L128.06 0L123.62 0ZM129.07-3.25L129.07-7.87L130.07-7.87L130.07-3.23Q130.07-2.52 130.21-2.04Q130.36-1.56 130.60-1.27Q130.85-0.98 131.18-0.86Q131.52-0.73 131.90-0.73L131.90-0.73Q132.30-0.73 132.64-0.86Q132.97-0.98 133.22-1.27Q133.48-1.56 133.62-2.04Q133.76-2.52 133.76-3.23L133.76-3.23L133.76-7.87L134.72-7.87L134.72-3.25Q134.72-2.30 134.51-1.66Q134.29-1.01 133.91-0.61Q133.54-0.20 133.02-0.03Q132.50 0.14 131.90 0.14L131.90 0.14Q131.30 0.14 130.78-0.03Q130.26-0.20 129.88-0.61Q129.50-1.01 129.29-1.66Q129.07-2.30 129.07-3.25L129.07-3.25ZM138.48 0L138.48-7.03L136.10-7.03L136.10-7.87L141.86-7.87L141.86-7.03L139.49-7.03L139.49 0L138.48 0ZM143.28 0L143.28-7.87L144.28-7.87L144.28 0L143.28 0ZM149.34 0.14L149.34 0.14Q148.60 0.14 147.98-0.14Q147.36-0.43 146.92-0.97Q146.47-1.50 146.23-2.26Q145.98-3.02 145.98-3.97L145.98-3.97Q145.98-4.92 146.23-5.67Q146.47-6.42 146.92-6.94Q147.36-7.46 147.98-7.74Q148.60-8.02 149.34-8.02L149.34-8.02Q150.08-8.02 150.70-7.73Q151.32-7.45 151.77-6.93Q152.22-6.41 152.47-5.66Q152.71-4.91 152.71-3.97L152.71-3.97Q152.71-3.02 152.47-2.26Q152.22-1.50 151.77-0.97Q151.32-0.43 150.70-0.14Q150.08 0.14 149.34 0.14ZM149.34-0.73L149.34-0.73Q149.87-0.73 150.29-0.96Q150.72-1.19 151.03-1.61Q151.33-2.04 151.50-2.63Q151.67-3.23 151.67-3.97L151.67-3.97Q151.67-4.70 151.50-5.29Q151.33-5.88 151.03-6.29Q150.72-6.70 150.29-6.92Q149.87-7.14 149.34-7.14L149.34-7.14Q148.81-7.14 148.39-6.92Q147.96-6.70 147.65-6.29Q147.35-5.88 147.18-5.29Q147.01-4.70 147.01-3.97L147.01-3.97Q147.01-3.23 147.18-2.63Q147.35-2.04 147.65-1.61Q147.96-1.19 148.39-0.96Q148.81-0.73 149.34-0.73ZM154.40 0L154.40-7.87L155.44-7.87L158.28-2.93L159.13-1.30L159.18-1.30Q159.14-1.90 159.10-2.54Q159.06-3.18 159.06-3.80L159.06-3.80L159.06-7.87L160.01-7.87L160.01 0L158.98 0L156.12-4.96L155.27-6.58L155.22-6.58Q155.27-5.98 155.31-5.36Q155.35-4.74 155.35-4.12L155.35-4.12L155.35 0L154.40 0ZM161.59-1.02L162.19-1.72Q162.61-1.27 163.18-1.00Q163.75-0.73 164.36-0.73L164.36-0.73Q165.14-0.73 165.58-1.09Q166.01-1.44 166.01-2.02L166.01-2.02Q166.01-2.32 165.91-2.53Q165.80-2.74 165.63-2.89Q165.46-3.04 165.22-3.16Q164.98-3.28 164.70-3.41L164.70-3.41L163.57-3.90Q163.30-4.02 163.01-4.19Q162.72-4.36 162.49-4.60Q162.26-4.84 162.12-5.17Q161.98-5.50 161.98-5.93L161.98-5.93Q161.98-6.37 162.16-6.76Q162.35-7.14 162.68-7.42Q163.01-7.70 163.46-7.86Q163.91-8.02 164.45-8.02L164.45-8.02Q165.16-8.02 165.76-7.75Q166.36-7.48 166.78-7.04L166.78-7.04L166.24-6.40Q165.88-6.74 165.44-6.94Q165-7.14 164.45-7.14L164.45-7.14Q163.79-7.14 163.39-6.83Q162.98-6.53 162.98-5.99L162.98-5.99Q162.98-5.70 163.10-5.50Q163.21-5.30 163.40-5.15Q163.60-5.00 163.82-4.89Q164.05-4.78 164.29-4.68L164.29-4.68L165.41-4.20Q165.74-4.06 166.04-3.87Q166.34-3.68 166.56-3.44Q166.78-3.19 166.90-2.86Q167.03-2.53 167.03-2.10L167.03-2.10Q167.03-1.63 166.84-1.22Q166.66-0.82 166.31-0.51Q165.96-0.20 165.47-0.03Q164.98 0.14 164.35 0.14L164.35 0.14Q163.52 0.14 162.82-0.17Q162.11-0.48 161.59-1.02L161.59-1.02Z" transform="translate(-1.08, 8.016)"></path></g></g></g></g></g></g><defs v-gra="od"></defs></g></svg>